<svg width="32" height="32" viewBox="0 0 32 32" fill="none" xmlns="http://www.w3.org/2000/svg">
<path d="M16.1558 5.43779C16.8445 4.4361 17.6272 3.54585 18.6431 2.94581V2.46211H13.6697V2.94581C14.6722 3.51646 15.5221 4.31977 16.1558 5.43779Z" fill="#FFC988"/>
<path d="M28.0051 7.68607V7.63709H20.2757C18.151 7.63709 16.748 8.45999 16.157 9.78496C16.157 8.94124 15.2131 7.63709 12.0005 7.63709H4.30768V7.68607C4.66423 8.1465 4.79122 10.5246 4.79122 12.7508V21.9632C4.79122 24.1894 4.66423 26.5675 4.30768 27.0279V27.0769H7.87933V27.0279C7.52034 26.5675 7.39457 24.1894 7.39457 21.9632L7.3677 8.04364H11.3594C12.738 8.04364 13.6037 8.37672 13.6037 9.52903C13.6037 12.4949 10.2885 10.7793 10.2885 13.2113C10.2885 15.6432 15.3511 15.8196 15.3511 21.346C15.3511 23.5845 14.2888 26.2344 11.6952 26.6373C11.6659 26.641 11.6415 26.6459 11.6219 26.6496C11.4644 26.6777 11.4522 26.7683 11.4498 26.8308C11.4498 26.8394 11.4498 26.8467 11.4498 26.8467V27.0769H17.9288C17.9288 23.3163 22.4212 20.6296 22.4212 18.1487C22.4212 15.6677 18.3635 14.9269 18.3635 11.3683C18.3635 9.45066 19.1023 8.04364 21.3503 8.04364H24.9439L24.9195 21.9632C24.9195 24.1894 24.7925 26.5675 24.4359 27.0279V27.0769H28.0051V27.0279C27.6486 26.5675 27.5216 24.1894 27.5216 21.9632V12.7508C27.5216 10.5246 27.6486 8.1465 28.0051 7.68607ZM21.962 17.5597C21.962 18.7524 19.8325 20.2463 17.9081 22.0366C17.9361 21.8064 17.9532 21.5762 17.9532 21.346C17.9532 14.6183 10.5437 15.4375 10.5437 13.2113C10.5437 11.3806 14.7125 12.6884 15.8652 10.903C15.8493 11.0548 15.8408 11.2079 15.8408 11.3683C15.8408 15.0542 21.962 15.7179 21.962 17.5609V17.5597Z" fill="#FFC988"/>
</svg>
