<svg width="94" height="95" viewBox="0 0 94 95" fill="none" xmlns="http://www.w3.org/2000/svg">
<path d="M6.47065 60.909C6.47065 58.8136 12.0107 60.8831 12.0107 57.5241C12.0107 56.6904 11.0781 55.4029 7.90526 55.4029H0V55.4527C0.353197 55.9064 0.478205 58.2544 0.478205 60.4533V69.5432C0.478205 71.74 0.353197 74.0881 0 74.5438V74.5935H7.12545C11.4313 74.5935 13.4711 71.6146 13.4711 68.9362C13.4711 62.2939 6.47065 63.1038 6.47065 60.907V60.909ZM6.59764 74.2174H3.04781L3.02202 55.8088H7.27824C8.63745 55.8088 9.49465 56.1372 9.49465 57.2734C9.49465 60.2026 6.22063 58.5111 6.22063 60.909C6.22063 63.3068 10.9035 63.4839 10.9035 68.9382C10.9035 71.3381 9.66926 74.2155 6.59764 74.2155V74.2174Z" fill="#FFC988"/>
<path d="M24.954 74.5955H28.0772L24.0491 60.2782C23.4697 58.1569 22.8149 55.9103 23.1681 55.4546V55.4049H20.5251L14.9097 74.5975H17.5289C16.9495 72.93 17.1519 70.2297 17.6539 67.5513H23.3943L24.0233 69.7481C24.6524 71.8435 25.3072 74.0921 24.9559 74.5458V74.5955H24.954ZM17.7273 67.1453C18.0289 65.5554 18.4317 64.0132 18.8107 62.676L20.4219 57.2217L23.2673 67.1453H17.7273Z" fill="#FFC988"/>
<path d="M41.8499 69.8237C41.8003 64.4948 31.752 62.4492 31.752 57.9301C31.752 56.2884 33.3136 55.379 34.8494 55.379C36.8892 55.379 39.6335 56.7421 41.0939 57.5003V55.4049C39.8339 55.2278 37.544 55.0009 35.3772 55.0009C32.3552 55.0009 29.7618 56.364 29.7618 59.2693C29.7618 63.8898 39.9609 66.415 39.9609 71.2386C39.9609 73.2086 38.9033 74.5219 36.7622 74.5219C34.0934 74.5219 31.6766 73.1827 30.0396 72.3748V74.5975C31.8274 74.8005 33.5894 75.0015 36.1074 75.0015C39.2307 75.0015 41.8995 73.1827 41.8479 69.8257L41.8499 69.8237Z" fill="#FFC988"/>
<path d="M58.9879 74.5458V74.5955H62.5139V74.5458C62.1607 74.0921 62.0357 71.744 62.0357 69.5452V60.4553C62.0357 58.2584 62.1607 55.9103 62.5139 55.4546V55.4049H59.9205L54.4062 70.7331L47.6578 55.4049H44.7112V55.4546C45.0644 55.9083 45.1894 58.2564 45.1894 60.4553V74.5975H47.8086C46.878 71.8455 45.5922 66.0111 45.5922 62.1726V56.8953L53.2216 74.5975H53.5232L59.4661 58.0316V69.5471C59.4661 71.744 59.3411 74.0921 58.9879 74.5478V74.5458Z" fill="#FFC988"/>
<path d="M73.332 55.4546V55.4049H70.689L65.0736 74.5975H67.6928C67.1134 72.93 67.3158 70.2297 67.8178 67.5513H73.5582L74.1872 69.7481C74.8162 71.8435 75.471 74.0921 75.1198 74.5458V74.5955H78.243L74.215 60.2782C73.6356 58.1569 72.9808 55.9103 73.334 55.4546H73.332ZM67.8932 67.1453C68.1948 65.5554 68.5976 64.0132 68.9766 62.676L70.5878 57.2217L73.4332 67.1453H67.8932Z" fill="#FFC988"/>
<path d="M86.9996 65.2012C86.9996 63.3824 93.0436 62.7258 93.0436 59.0902C93.0436 56.8933 91.5078 55.4029 88.6624 55.4029H81.0329V55.4527C81.3861 55.9064 81.5111 58.2544 81.5111 60.4533V69.5432C81.5111 71.74 81.3861 74.0881 81.0329 74.5438V74.5935H84.5589V74.5438C84.2057 74.0901 84.0807 71.742 84.0807 69.5432L84.0549 55.8049H87.6048C89.8212 55.8049 90.5514 57.1938 90.5514 59.0882C90.5514 62.5984 86.5471 63.2292 86.5471 65.7803C86.5471 68.3313 90.978 70.8804 90.978 74.5935H94C94 70.4764 86.9996 67.3463 86.9996 65.1992V65.2012Z" fill="#FFC988"/>
<path d="M22.2593 87.8045C22.2593 86.7339 25.0869 87.7906 25.0869 86.0773C25.0869 85.6514 24.6107 84.9948 22.9915 84.9948H18.9556V85.0206C19.1361 85.2535 19.1996 86.4514 19.1996 87.5737V92.2141C19.1996 93.3364 19.1361 94.5344 18.9556 94.7672V94.7931H22.5947C24.7932 94.7931 25.835 93.2708 25.835 91.9057C25.835 88.5149 22.2613 88.9268 22.2613 87.8065L22.2593 87.8045ZM22.3248 94.6H20.5112L20.4993 85.1997H22.6721C23.3666 85.1997 23.8031 85.3669 23.8031 85.9479C23.8031 87.4443 22.1324 86.5787 22.1324 87.8045C22.1324 89.0303 24.5234 89.1198 24.5234 91.9037C24.5234 93.1295 23.8944 94.598 22.3248 94.598V94.6Z" fill="#FFC988"/>
<path d="M29.3947 85.0206C29.5753 85.2535 29.6388 86.4514 29.6388 87.5737V92.2141C29.6388 93.3364 29.5753 94.5344 29.3947 94.7672V94.7931H35.2324V93.9036C34.2938 94.1742 32.3136 94.5602 30.9504 94.5861V89.673H34.6014V89.4661H30.9504V85.1977C32.3136 85.2236 34.2938 85.6096 35.2324 85.8803V84.9908H29.3947V85.0206Z" fill="#FFC988"/>
<path d="M42.6991 85.0206V84.9948H41.3498L38.4826 94.7931H39.82C39.5243 93.9414 39.6275 92.5624 39.8835 91.1953H42.8142L43.1357 92.3176C43.4571 93.3882 43.7905 94.5364 43.6119 94.7672V94.7931H45.2052L43.1476 87.4821C42.8519 86.3996 42.5186 85.2515 42.6971 85.0206H42.6991ZM39.9212 90.9903C40.076 90.1785 40.2803 89.3925 40.4748 88.7079L41.2983 85.9221L42.7507 90.9884H39.9232L39.9212 90.9903Z" fill="#FFC988"/>
<path d="M55.1325 90.0233V91.7505C55.1325 93.6588 53.8983 94.5364 52.6898 94.5364C51.4814 94.5364 50.3623 93.7105 50.3623 91.5973V87.5737C50.3623 86.4514 50.4258 85.2535 50.6064 85.0206V84.9948H48.8067V85.0206C48.9872 85.2535 49.0507 86.4514 49.0507 87.5737V91.7505C49.0507 93.9812 50.6441 95 52.2513 95C53.8586 95 55.4261 93.9812 55.4261 91.7505V84.9948H54.2951C54.5134 85.9101 55.1305 88.2303 55.1305 90.0233H55.1325Z" fill="#FFC988"/>
<path d="M59.0256 85.9997C59.6546 85.7032 60.8769 85.3032 61.8273 85.2137V92.2141C61.8273 93.3364 61.7638 94.5344 61.5833 94.7672V94.7931H63.383V94.7672C63.2024 94.5344 63.1389 93.3364 63.1389 92.2141V85.2137C64.0894 85.3032 65.3236 85.7032 65.9407 85.9997V84.9948H59.0236V85.9997H59.0256Z" fill="#FFC988"/>
<path d="M75.0424 84.9948H74.0146C74.0146 86.3479 74.0404 87.2633 73.5523 88.6562L72.7288 90.9764L71.3656 87.4045C70.9549 86.3598 70.5045 85.2515 70.685 85.0186V84.9928H68.9369V85.0186C69.0917 85.1858 69.3734 85.6256 69.5798 86.1788L71.5204 91.2451V92.2121C71.5204 93.3344 71.4569 94.5324 71.2763 94.7652V94.7911H73.0761V94.7652C72.8955 94.5324 72.832 93.3344 72.832 92.2121V91.2451L75.0424 84.9928V84.9948Z" fill="#FFC988"/>
<path d="M46.999 4.83547C48.1181 3.20772 49.39 1.76107 51.0409 0.786012V0H42.9591V0.786012C44.5881 1.71331 45.9692 3.01868 46.999 4.83547Z" fill="#FFC988"/>
<path d="M66.2542 8.48893V8.40933H53.6939C50.2413 8.40933 47.9614 9.74655 47.001 11.8996C47.001 10.5286 45.4672 8.40933 40.2466 8.40933H27.7458V8.48893C28.3252 9.23713 28.5316 13.1015 28.5316 16.7192V31.6892C28.5316 35.3069 28.3252 39.1713 27.7458 39.9195V39.9991H33.5497V39.9195C32.9664 39.1713 32.762 35.3069 32.762 31.6892L32.7183 9.06998H39.2049C41.4451 9.06998 42.8519 9.61124 42.8519 11.4837C42.8519 16.3033 37.4647 13.5154 37.4647 17.4674C37.4647 21.4193 45.6914 21.7059 45.6914 30.6863C45.6914 34.3239 43.9651 38.63 39.7505 39.2847C39.7029 39.2907 39.6632 39.2986 39.6315 39.3046C39.3755 39.3503 39.3557 39.4976 39.3517 39.5991C39.3517 39.613 39.3517 39.625 39.3517 39.625V39.9991H49.8801C49.8801 33.8881 57.1802 29.5222 57.1802 25.4907C57.1802 21.4591 50.5865 20.2552 50.5865 14.4726C50.5865 11.3564 51.787 9.06998 55.44 9.06998H61.2797L61.24 31.6892C61.24 35.3069 61.0336 39.1713 60.4542 39.9195V39.9991H66.2542V39.9195C65.6748 39.1713 65.4684 35.3069 65.4684 31.6892V16.7192C65.4684 13.1015 65.6748 9.23713 66.2542 8.48893ZM56.4341 24.5335C56.4341 26.4717 52.9736 28.8994 49.8464 31.8086C49.892 31.4345 49.9198 31.0604 49.9198 30.6863C49.9198 19.7538 37.8794 21.085 37.8794 17.4674C37.8794 14.4925 44.6536 16.6177 46.5268 13.7164C46.501 13.9632 46.4871 14.2119 46.4871 14.4726C46.4871 20.4622 56.4341 21.5407 56.4341 24.5355V24.5335Z" fill="#FFC988"/>
</svg>
